<svg width="68" height="63" fill="none" xmlns="http://www.w3.org/2000/svg"><g filter="url(#filter0_d)" fill="#000" fill-opacity=".8"><path d="M55.416 17.596l3.877-3.877c1.015-1.015 1.015-2.584 0-3.6l-3.877-3.877c-.277-.277-.554-.461-.831-.553-.277-.093-.646-.185-.923-.185-.646 0-1.293.277-1.754.738L48.03 10.12 13.969 43.996c-.092.093-.092.185-.184.277l-3.323 9.785a.718.718 0 00.184.738c.185.093.37.185.554.185h.185l9.784-3.23c.093 0 .185-.093.277-.186l33.97-33.969zM20.985 50.088l-2.308-2.307 32.954-32.954 2.308 2.308-32.954 32.953zm-6.277-4.338l2.492 2.492 2.492 2.493-2.492.83-3.323-3.323.83-2.492zm38.03-38.585a1.17 1.17 0 011.662 0l3.877 3.877a1.17 1.17 0 010 1.662l-3.415 3.415-2.77-2.769-2.769-2.77 3.416-3.415zM48.4 11.504l2.308 2.308-33.046 32.953-2.308-2.307L48.4 11.504zM13.416 49.719l2.307 2.308-3.507 1.2 1.2-3.508zm49.199-25.477h-10.43a.728.728 0 00-.739.739c0 .461.277.738.739.738h10.43c.37 0 .739-.277.739-.738a.728.728 0 00-.739-.739zM5.385 34.858h14.123a.728.728 0 00.738-.739c0-.462-.277-.738-.738-.738H5.385a.728.728 0 00-.739.738c0 .462.37.739.739.739zm57.231-1.385H42.954a.728.728 0 00-.738.738c0 .462.276.739.738.739h19.662a.728.728 0 00.738-.739.728.728 0 00-.738-.738zm0 9.231H33.723a.728.728 0 00-.738.738c0 .462.277.739.738.739h28.893a.728.728 0 00.738-.739.728.728 0 00-.738-.738zM22 7.165h25.2c.37 0 .738-.277.738-.738 0-.462-.277-.739-.738-.739H22a.728.728 0 00-.738.739c0 .461.369.738.738.738zm-6.615 9.231h19.384c.37 0 .739-.277.739-.738 0-.462-.277-.739-.739-.739H15.385a.728.728 0 00-.739.739c0 .461.37.738.739.738zm-10 9.231h23.354a.728.728 0 00.738-.739c0-.461-.277-.738-.738-.738H5.385a.728.728 0 00-.739.738c0 .462.37.739.739.739zm41.538 26.308h-22.43a.728.728 0 00-.74.738c0 .462.278.738.74.738h22.43c.37 0 .739-.276.739-.738a.728.728 0 00-.739-.738z"/></g><defs><filter id="filter0_d" x="0" y="0" width="68" height="68" filterUnits="userSpaceOnUse" color-interpolation-filters="sRGB"><feFlood flood-opacity="0" result="BackgroundImageFix"/><feColorMatrix in="SourceAlpha" values="0 0 0 0 0 0 0 0 0 0 0 0 0 0 0 0 0 0 127 0"/><feOffset dy="4"/><feGaussianBlur stdDeviation="2"/><feColorMatrix values="0 0 0 0 0 0 0 0 0 0 0 0 0 0 0 0 0 0 0.25 0"/><feBlend in2="BackgroundImageFix" result="effect1_dropShadow"/><feBlend in="SourceGraphic" in2="effect1_dropShadow" result="shape"/></filter></defs></svg>