<svg width="68" height="63" viewBox="0 0 68 63" fill="none" xmlns="http://www.w3.org/2000/svg">
<g filter="url(#filter0_d)">
<path d="M55.4156 17.5962L59.2925 13.7193C60.3079 12.7039 60.3079 11.1347 59.2925 10.1193L55.4156 6.24237C55.1387 5.96544 54.8617 5.78083 54.5848 5.68852C54.3079 5.59621 53.9387 5.50391 53.6617 5.50391C53.0156 5.50391 52.3694 5.78083 51.9079 6.24237L48.031 10.1193L13.9694 43.9962C13.8771 44.0885 13.8771 44.1808 13.7848 44.2731L10.4617 54.0577C10.3694 54.3347 10.4617 54.6116 10.6464 54.7962C10.831 54.8885 11.0156 54.9808 11.2002 54.9808C11.2925 54.9808 11.3848 54.9808 11.3848 54.9808L21.1694 51.7501C21.2617 51.7501 21.3541 51.6577 21.4464 51.5654L55.4156 17.5962ZM20.9848 50.0885L18.6771 47.7808L51.631 14.827L53.9387 17.1347L20.9848 50.0885ZM14.7079 45.7501L17.2002 48.2424L19.6925 50.7347L17.2002 51.5654L13.8771 48.2424L14.7079 45.7501ZM52.7387 7.16544C53.2002 6.70391 53.9387 6.70391 54.4002 7.16544L58.2771 11.0424C58.7387 11.5039 58.7387 12.2424 58.2771 12.7039L54.8617 16.1193L52.0925 13.3501L49.3233 10.5808L52.7387 7.16544ZM48.4002 11.5039L50.7079 13.8116L17.6617 46.7654L15.3541 44.4577L48.4002 11.5039ZM13.4156 49.7193L15.7233 52.027L12.2156 53.227L13.4156 49.7193Z" fill="black" fill-opacity="0.8"/>
<path d="M62.6155 24.2422H52.1847C51.8155 24.2422 51.4463 24.5191 51.4463 24.9806C51.4463 25.4422 51.7232 25.7191 52.1847 25.7191H62.6155C62.9847 25.7191 63.354 25.4422 63.354 24.9806C63.354 24.5191 62.9847 24.2422 62.6155 24.2422Z" fill="black" fill-opacity="0.8"/>
<path d="M5.3847 34.8575H19.5078C19.877 34.8575 20.2462 34.5806 20.2462 34.1191C20.2462 33.6575 19.9693 33.3806 19.5078 33.3806H5.3847C5.01547 33.3806 4.64624 33.6575 4.64624 34.1191C4.64624 34.5806 5.01547 34.8575 5.3847 34.8575Z" fill="black" fill-opacity="0.8"/>
<path d="M62.6156 33.4729H42.954C42.5848 33.4729 42.2156 33.7498 42.2156 34.2114C42.2156 34.6729 42.4925 34.9498 42.954 34.9498H62.6156C62.9848 34.9498 63.354 34.6729 63.354 34.2114C63.354 33.7498 62.9848 33.4729 62.6156 33.4729Z" fill="black" fill-opacity="0.8"/>
<path d="M62.6156 42.7036H33.7233C33.3541 42.7036 32.9849 42.9805 32.9849 43.4421C32.9849 43.9036 33.2618 44.1805 33.7233 44.1805H62.6156C62.9849 44.1805 63.3541 43.9036 63.3541 43.4421C63.3541 42.9805 62.9849 42.7036 62.6156 42.7036Z" fill="black" fill-opacity="0.8"/>
<path d="M21.9999 7.16516H47.1999C47.5692 7.16516 47.9384 6.88823 47.9384 6.42669C47.9384 5.96515 47.6615 5.68823 47.1999 5.68823H21.9999C21.6307 5.68823 21.2615 5.96515 21.2615 6.42669C21.2615 6.88823 21.6307 7.16516 21.9999 7.16516Z" fill="black" fill-opacity="0.8"/>
<path d="M15.3847 16.3964H34.7693C35.1385 16.3964 35.5078 16.1194 35.5078 15.6579C35.5078 15.1964 35.2309 14.9194 34.7693 14.9194H15.3847C15.0155 14.9194 14.6462 15.1964 14.6462 15.6579C14.6462 16.1194 15.0155 16.3964 15.3847 16.3964Z" fill="black" fill-opacity="0.8"/>
<path d="M5.3847 25.6268H28.7386C29.1078 25.6268 29.477 25.3499 29.477 24.8884C29.477 24.4268 29.2001 24.1499 28.7386 24.1499H5.3847C5.01547 24.1499 4.64624 24.4268 4.64624 24.8884C4.64624 25.3499 5.01547 25.6268 5.3847 25.6268Z" fill="black" fill-opacity="0.8"/>
<path d="M46.9231 51.9346H24.4924C24.1231 51.9346 23.7539 52.2115 23.7539 52.673C23.7539 53.1346 24.0308 53.4115 24.4924 53.4115H46.9231C47.2924 53.4115 47.6616 53.1346 47.6616 52.673C47.6616 52.2115 47.2924 51.9346 46.9231 51.9346Z" fill="black" fill-opacity="0.8"/>
</g>
<defs>
<filter id="filter0_d" x="0" y="0" width="68" height="68" filterUnits="userSpaceOnUse" color-interpolation-filters="sRGB">
<feFlood flood-opacity="0" result="BackgroundImageFix"/>
<feColorMatrix in="SourceAlpha" type="matrix" values="0 0 0 0 0 0 0 0 0 0 0 0 0 0 0 0 0 0 127 0"/>
<feOffset dy="4"/>
<feGaussianBlur stdDeviation="2"/>
<feColorMatrix type="matrix" values="0 0 0 0 0 0 0 0 0 0 0 0 0 0 0 0 0 0 0.25 0"/>
<feBlend mode="normal" in2="BackgroundImageFix" result="effect1_dropShadow"/>
<feBlend mode="normal" in="SourceGraphic" in2="effect1_dropShadow" result="shape"/>
</filter>
</defs>
</svg>
