<svg width="106" height="25" fill="none" xmlns="http://www.w3.org/2000/svg"><path d="M0 16.925V7.118C0 2.56 2.592 0 6.479 0c3.995 0 6.457 2.452 6.695 6.925h-2.7c-.194-2.99-1.598-4.366-4.017-4.366-2.224 0-3.714 1.463-3.714 4.58v9.807c0 3.075 1.555 4.538 3.822 4.538 2.462 0 3.823-1.42 4.082-4.344h2.7c-.26 4.408-2.722 6.881-6.782 6.881C2.635 24 0 21.485 0 16.925zm24.835 1.655h-6.738l-1.23 5.033h-2.873L19.998.43h2.958l5.983 23.183h-2.851l-1.253-5.032zm-.583-2.515l-1.9-7.85c-.367-1.484-.691-3.44-.82-4.344h-.109c-.13.903-.475 2.86-.842 4.344l-1.879 7.85h5.55zm20.408 1.053c0 4.13-2.57 6.495-6.651 6.495h-6.35V.43h5.918c3.823 0 6.177 2.28 6.177 6.15 0 2.517-1.037 4.345-2.635 5.076 2.224.688 3.541 2.688 3.541 5.462zM34.38 2.99v7.527h3.067c2.354 0 3.52-1.333 3.52-3.85 0-2.515-1.166-3.677-3.584-3.677H34.38zm7.516 14.13c0-2.689-1.727-4.065-4.362-4.065H34.38v8.021h3.39c2.765-.021 4.125-1.247 4.125-3.957zm19.07-.002c0 4.13-2.57 6.495-6.652 6.495h-6.35V.43h5.918c3.823 0 6.177 2.28 6.177 6.15 0 2.517-1.037 4.345-2.635 5.076 2.203.688 3.542 2.688 3.542 5.462zM50.686 2.99v7.527h3.067c2.354 0 3.52-1.333 3.52-3.85 0-2.515-1.166-3.677-3.585-3.677h-3.002zM58.2 17.12c0-2.689-1.727-4.065-4.362-4.065h-3.153v8.021h3.39c2.765-.021 4.125-1.247 4.125-3.957zm14.6 1.46h-6.76l-1.23 5.033h-2.851L67.941.43H70.9l5.982 23.183h-2.85L72.8 18.581zm-.583-2.515l-1.9-7.85c-.367-1.484-.691-3.44-.821-4.344h-.108c-.13.903-.475 2.839-.842 4.344l-1.9 7.85h5.571zM89.3 2.99h-4.99v20.623h-2.764V2.989h-4.988V.43h12.741v2.56zm2.375 13.935V7.118c0-4.58 2.592-7.118 6.48-7.118 3.994 0 6.456 2.452 6.672 6.925h-2.678c-.194-2.99-1.598-4.366-4.017-4.366-2.224 0-3.714 1.463-3.714 4.58v9.807c0 3.075 1.555 4.538 3.822 4.538 2.462 0 3.823-1.42 4.082-4.344h2.7c-.26 4.408-2.721 6.881-6.782 6.881-3.952-.021-6.565-2.537-6.565-7.096z" fill="#171C3C"/></svg>