<svg width="17" height="19" fill="none" xmlns="http://www.w3.org/2000/svg"><path d="M17 11.733V4.915L3.4 2.49v-.838C3.4.74 2.65 0 1.727 0H0v1.12h1.727c.298 0 .54.238.54.532v10.334c0 1.193.982 2.164 2.19 2.164h.454v1.275a1.898 1.898 0 00-.755-.156c-1.042 0-1.89.837-1.89 1.866 0 1.028.848 1.865 1.89 1.865.977 0 1.784-.738 1.879-1.679h.01V14.15h9.822v1.275a1.898 1.898 0 00-.756-.156c-1.041 0-1.889.837-1.889 1.866 0 1.028.848 1.865 1.89 1.865.977 0 1.783-.738 1.879-1.679H17v-4.29H4.458A1.052 1.052 0 013.4 11.986v-.44l13.6.187zM4.156 17.88a.752.752 0 01-.756-.746c0-.412.339-.747.756-.747.416 0 .755.335.755.747a.752.752 0 01-.755.746zm10.955 0a.752.752 0 01-.755-.746c0-.412.338-.747.755-.747s.756.335.756.747a.752.752 0 01-.756.746zm-6.044-7.376L6.8 10.473v-6.24l2.267.405v5.867zM10.2 4.84l2.078.37v5.339L10.2 10.52V4.84zm-4.533 5.618L3.4 10.427v-6.8l2.267.404v6.427zm10.2.14l-2.456-.034V5.412l2.456.438v4.748z" fill="#171C3C"/></svg>