<svg width="17" height="17" fill="none" xmlns="http://www.w3.org/2000/svg"><path d="M.72 8.685C.565 4.652 4.1.923 8.137.875c2.057-.175 4.06.624 5.617 1.928a35.147 35.147 0 01-1.983 2.046c-1.371-.833-3.022-1.467-4.625-.904-2.584.736-4.15 3.788-3.193 6.317.792 2.64 4.004 4.09 6.522 2.98 1.303-.466 2.162-1.669 2.54-2.961-1.494-.03-2.989-.012-4.482-.053-.004-.889-.008-1.774-.004-2.663 2.491-.004 4.987-.011 7.481.011.153 2.178-.167 4.509-1.584 6.257-1.938 2.495-5.52 3.227-8.434 2.248C2.901 15.065.652 11.95.72 8.685z" fill="#fff"/></svg>