<svg width="45" height="45" fill="none" xmlns="http://www.w3.org/2000/svg"><path d="M44.39 34.627l-4.652-4.652.816-1.693c.245-.507.278-1.08.092-1.612a2.112 2.112 0 00-3.892-.22l-.176.364-1.482-1.482.816-1.692c.245-.508.278-1.08.092-1.612a2.112 2.112 0 00-3.892-.221l-.177.365-1.481-1.482.816-1.692a2.1 2.1 0 00.092-1.613 2.113 2.113 0 00-3.484-.797 2.103 2.103 0 00-.409.576l-.176.365-1.482-1.481.817-1.693c.244-.507.277-1.08.091-1.612a2.112 2.112 0 00-3.484-.796c-.27.27-.421.603-.584.94l-1.966-1.966 3.481-3.481a2.113 2.113 0 000-2.984L20.32.61a2.13 2.13 0 00-2.984 0l-4.254 4.254a.703.703 0 10.994.995l1.171-1.17 4.84 4.84-7.625 7.625-4.84-4.84 4.006-4.007a.703.703 0 10-.995-.994l-7.09 7.09a2.13 2.13 0 000 2.984l3.846 3.846a2.132 2.132 0 002.984 0l3.482-3.482 4.35 4.351-.816 1.693a2.112 2.112 0 002.596 2.909c.532-.186.96-.568 1.205-1.076l.176-.365 1.482 1.482-.816 1.692a2.125 2.125 0 00.032 1.899 2.111 2.111 0 003.769-.065l.176-.366 1.481 1.482-.816 1.692a2.13 2.13 0 00.412 2.414 2.133 2.133 0 002.483.365c.393-.21.712-.544.906-.945l.176-.365 1.482 1.481-.817 1.693a2.13 2.13 0 00.412 2.413 2.133 2.133 0 002.483.365 2.11 2.11 0 00.906-.945l.176-.365 2.267 2.267a2.13 2.13 0 002.984 0l3.846-3.846a2.13 2.13 0 000-2.984zM9.38 20.237a.704.704 0 01-.995 0l-3.846-3.845a.71.71 0 010-.995l2.089-2.089 4.84 4.841-2.088 2.089zm6.863-16.543l2.088-2.09a.71.71 0 01.995 0l3.846 3.847a.704.704 0 010 .994l-2.089 2.089-4.84-4.84zM14.85 16.757l4.84-4.841 2.314 2.313-3.15 6.531-4.004-4.004zm5.074 8.26a.71.71 0 01-1.018.283.71.71 0 01-.249-.894l5.438-11.273a.71.71 0 01.939-.328.71.71 0 01.327.94l-5.437 11.272zm2.09-1.096l3.15-6.531 1.483 1.482-3.15 6.53-1.482-1.481zm2.552 5.739a.71.71 0 01-.939.327.71.71 0 01-.328-.939l5.438-11.272a.71.71 0 01.924-.335.71.71 0 01.343.946L24.565 29.66zm2.09-1.097l3.151-6.53 1.482 1.481-3.15 6.531-1.482-1.482zm2.553 5.739a.71.71 0 01-.94.328.71.71 0 01-.327-.94l5.437-11.272a.71.71 0 01.94-.328.71.71 0 01.327.939l-5.437 11.273zm2.09-1.096l3.15-6.532 1.482 1.482-3.15 6.531-1.482-1.481zm2.552 5.738a.71.71 0 01-.939.328.71.71 0 01-.328-.94l5.438-11.272a.71.71 0 01.939-.328.71.71 0 01.328.94L33.85 38.943zm9.545-2.328l-3.845 3.846a.699.699 0 01-.498.206.698.698 0 01-.497-.206l-2.614-2.614 3.15-6.531 4.304 4.305a.7.7 0 01.206.497.698.698 0 01-.206.497z" fill="#fff"/><path d="M20.179 34.69l-4.06-7.033a2.116 2.116 0 00-1.828-1.055H6.17c-.752 0-1.452.404-1.828 1.055L.282 34.69a2.116 2.116 0 000 2.11l4.06 7.033a2.116 2.116 0 001.828 1.055h1.21a.703.703 0 100-1.406H6.17a.705.705 0 01-.61-.352L1.5 36.097a.705.705 0 010-.704l4.06-7.033a.705.705 0 01.61-.351h8.121c.25 0 .484.134.61.351l4.06 7.033a.705.705 0 010 .704L14.9 43.13a.705.705 0 01-.61.352h-3.16a.703.703 0 100 1.406h3.16c.751 0 1.451-.404 1.827-1.055l4.06-7.033a2.11 2.11 0 000-2.11z" fill="#fff"/><path d="M17.986 35.393l-3.573-6.189a.704.704 0 00-.61-.352H6.658a.704.704 0 00-.61.352l-3.572 6.19a.703.703 0 000 .703l3.573 6.189a.703.703 0 00.609.352h7.147a.703.703 0 00.609-.352l3.573-6.19a.703.703 0 000-.703zm-4.588 5.838H7.063l-3.167-5.486 3.167-5.486h6.335l3.167 5.486-3.167 5.486z" fill="#fff"/></svg>