<svg width="13" height="13" fill="none" xmlns="http://www.w3.org/2000/svg"><g clip-path="url(#clip0)" fill="#171C3C"><path d="M11.477 13H1.523C.683 13 0 12.317 0 11.477V9.445h1.016v2.032c0 .28.227.507.507.507h9.954c.28 0 .507-.227.507-.507V1.523a.508.508 0 00-.507-.507H1.523a.508.508 0 00-.507.507v2.032H0V1.523C0 .683.683 0 1.523 0h9.954C12.317 0 13 .683 13 1.523v9.954c0 .84-.683 1.523-1.523 1.523z"/><path d="M4.094 9.656l-.718-.719 1.93-1.93H-2V5.993h7.305l-1.93-1.93.719-.718L7.249 6.5 4.094 9.656z"/></g><defs><clipPath id="clip0"><path fill="#fff" transform="matrix(1 0 0 -1 0 13)" d="M0 0h13v13H0z"/></clipPath></defs></svg>