<svg width="147" height="47" fill="none" xmlns="http://www.w3.org/2000/svg"><mask id="path-1-inside-1" fill="#fff"><path fill-rule="evenodd" clip-rule="evenodd" d="M32 10h110a5 5 0 015 5v27a5 5 0 01-5 5H5a5 5 0 01-5-5V15a5 5 0 015-5h7L22 0l10 10z"/></mask><path fill-rule="evenodd" clip-rule="evenodd" d="M32 10h110a5 5 0 015 5v27a5 5 0 01-5 5H5a5 5 0 01-5-5V15a5 5 0 015-5h7L22 0l10 10z" fill="#fff"/><path d="M32 10l-.707.707.293.293H32v-1zm-20 0v1h.414l.293-.293L12 10zM22 0l.707-.707L22-1.414l-.707.707L22 0zm10 11h110V9H32v2zm110 0a4 4 0 014 4h2a6 6 0 00-6-6v2zm4 4v27h2V15h-2zm0 27a4 4 0 01-4 4v2a6 6 0 006-6h-2zm-4 4H5v2h137v-2zM5 46a4 4 0 01-4-4h-2a6 6 0 006 6v-2zm-4-4V15h-2v27h2zm0-27a4 4 0 014-4V9a6 6 0 00-6 6h2zm4-4h7V9H5v2zm7.707-.293l10-10-1.414-1.414-10 10 1.414 1.414zm8.586-10l10 10 1.414-1.414-10-10L21.293.707z" fill="#171C3C" fill-opacity=".26" mask="url(#path-1-inside-1)"/></svg>