<svg width="37" height="46" fill="none" xmlns="http://www.w3.org/2000/svg"><path d="M35.887 16.02a.674.674 0 00.674-.675v-6.51a2.492 2.492 0 00-2.362-2.493C26.207 5.935 21.912 2.667 20.063.755A2.459 2.459 0 0018.28 0c-.679 0-1.312.268-1.782.755-1.85 1.912-6.145 5.18-14.136 5.587A2.492 2.492 0 000 8.836v18.787c0 5.41 2.911 10.453 7.598 13.159l7.623 4.4a6.115 6.115 0 003.06.818 6.115 6.115 0 003.059-.817l7.623-4.401a15.237 15.237 0 007.598-13.159V18.49a.674.674 0 00-1.348 0v9.133c0 4.931-2.653 9.526-6.923 11.992l-7.624 4.4c-1.471.85-3.3.85-4.771 0l-7.624-4.4a13.886 13.886 0 01-6.923-11.992V8.836c0-.613.475-1.117 1.082-1.148 8.454-.43 13.05-3.942 15.037-5.996a1.12 1.12 0 01.813-.344c.31 0 .6.122.814.344 1.987 2.054 6.583 5.565 15.036 5.996a1.145 1.145 0 011.083 1.148v6.51c0 .372.302.673.674.673z" fill="#fff"/><path d="M4.305 17.816a.674.674 0 00-.674.674v9.133c0 4.118 2.215 7.955 5.781 10.015l7.624 4.4a2.493 2.493 0 002.489 0l7.624-4.4a11.598 11.598 0 005.781-10.015V11.319a1.58 1.58 0 00-1.38-1.568c-6.044-.76-10.02-3.056-12.292-4.85a1.577 1.577 0 00-1.956.001c-2.27 1.793-6.247 4.089-12.29 4.85a1.581 1.581 0 00-1.381 1.567v4.026a.674.674 0 101.348 0V11.32a.23.23 0 01.2-.23c6.352-.8 10.553-3.23 12.958-5.128a.232.232 0 01.287 0c2.405 1.898 6.606 4.329 12.958 5.127.114.015.2.114.2.231v16.304c0 3.638-1.957 7.028-5.107 8.848l-7.624 4.4c-.348.201-.794.2-1.141 0l-7.624-4.4a10.247 10.247 0 01-5.107-8.848V18.49a.674.674 0 00-.674-.674z" fill="#fff"/><path d="M10.112 21.419c.547 0 1.062.213 1.448.6l3.522 3.52c.263.263.69.263.953 0l3.857-3.857a.674.674 0 10-.953-.953l-3.38 3.38-3.045-3.043a3.374 3.374 0 00-2.402-.995 3.37 3.37 0 00-2.401.995 3.376 3.376 0 00-.996 2.402c0 .907.354 1.76.996 2.402l5.445 5.445a3.372 3.372 0 002.402.995 3.37 3.37 0 002.401-.995L28.85 20.424a3.372 3.372 0 00.996-2.402c0-.907-.354-1.76-.995-2.402a3.374 3.374 0 00-2.402-.994c-.907 0-1.76.353-2.401.994l-2.885 2.885a.674.674 0 10.953.953L25 16.573c.387-.387.902-.6 1.449-.6s1.062.213 1.449.6.6.902.6 1.45c0 .547-.213 1.06-.6 1.448L17.006 30.363c-.387.387-.9.6-1.448.6a2.033 2.033 0 01-1.449-.6l-5.446-5.447a2.034 2.034 0 01-.6-1.448c0-.547.213-1.062.6-1.45a2.04 2.04 0 011.449-.6z" fill="#fff"/></svg>