<svg width="44" height="37" fill="none" xmlns="http://www.w3.org/2000/svg"><path d="M9.603 26.847a.86.86 0 00-1.21.107l-2.15 2.566-.776-.659a.86.86 0 00-1.11 1.312l1.435 1.217a.86.86 0 001.215-.104l2.703-3.228a.86.86 0 00-.107-1.211z" fill="#fff"/><path d="M42.18 13.593h-1.235c-1.035-.048-1.867-.93-2.83-1.949-.642-.681-1.331-1.41-2.16-1.951V2.347A2.35 2.35 0 0033.607 0H5.578A2.35 2.35 0 003.23 2.347v5.961a.86.86 0 101.718 0V2.347c0-.34.288-.628.628-.628h9.51v7.603a.86.86 0 001.315.729l3.192-1.995 3.189 1.995a.86.86 0 001.315-.729V1.72h9.51c.34 0 .628.287.628.628v6.617a4.702 4.702 0 00-.884-.099h-4.87c-1.036.016-1.568.486-1.833.877-.41.607-.448 1.43-.107 2.314.08.207.176.402.287.586h-6.516a2.542 2.542 0 00-2.403 3.362h-.228a2.542 2.542 0 00-2.539 2.54c0 1.4 1.14 2.538 2.54 2.538h.227a2.544 2.544 0 002.269 3.359 2.542 2.542 0 002.402 3.363h10.646c.367 0 .7-.044 1.008-.121v2.692c0 .342-.287.63-.627.63H13.702c.169-.6.26-1.232.26-1.885a6.99 6.99 0 00-6.98-6.982c-.707 0-1.39.107-2.033.303v-6.407a.86.86 0 10-1.719 0v7.202A6.981 6.981 0 000 29.12c0 3.85 3.132 6.984 6.982 6.984a6.984 6.984 0 005.977-3.38h20.649a2.35 2.35 0 002.346-2.348v-3.539a15.9 15.9 0 00.547-.41c.76-.585 1.415-1.09 2.458-1.09h3.221A1.82 1.82 0 0044 23.52v-8.107c0-1.004-.816-1.82-1.82-1.82zM22.38 7.77l-2.33-1.457a.86.86 0 00-.912 0l-2.332 1.458V1.719h5.573V7.77zM6.981 34.385a5.27 5.27 0 01-5.263-5.265 5.269 5.269 0 015.263-5.263 5.269 5.269 0 015.262 5.263 5.27 5.27 0 01-5.262 5.265zm35.3-10.865a.103.103 0 01-.102.098h-3.22c-1.63 0-2.627.77-3.508 1.448-.74.57-1.323 1.02-2.225 1.02H22.58a.821.821 0 010-1.641h2.853a.86.86 0 100-1.719h-5.12a.823.823 0 010-1.643h5.12a.86.86 0 100-1.72h-7.75a.821.821 0 010-1.64h7.75a.86.86 0 100-1.719h-5.12a.823.823 0 010-1.643h12.7a.86.86 0 100-1.72h-3.111a1.865 1.865 0 01-1.756-1.201c-.163-.425-.119-.667-.072-.736.046-.069.214-.116.428-.12h4.828c1.449.029 2.463 1.103 3.536 2.24 1.124 1.19 2.285 2.42 4.028 2.487h1.286c.055 0 .102.047.102.102v8.107z" fill="#fff"/><path d="M4.09 13.032a.861.861 0 000-1.721.86.86 0 00-.86.859v.005c0 .474.385.857.86.857z" fill="#fff"/></svg>