<svg width="17" height="17" fill="none" xmlns="http://www.w3.org/2000/svg"><path d="M4.694 3.869a.628.628 0 00-.888 0 4.292 4.292 0 00-1.228 3.48.628.628 0 101.25-.126 3.04 3.04 0 01.866-2.466.628.628 0 000-.888z" fill="#171C3C"/><path d="M7.181 0C3.221 0 0 3.221 0 7.181s3.221 7.181 7.181 7.181 7.181-3.221 7.181-7.181S11.141 0 7.181 0zm0 13.106A5.931 5.931 0 011.256 7.18a5.931 5.931 0 015.925-5.925 5.932 5.932 0 015.925 5.925 5.931 5.931 0 01-5.925 5.925z" fill="#171C3C"/><path d="M16.816 15.928l-4.564-4.564a.628.628 0 10-.888.888l4.564 4.564a.626.626 0 00.888 0 .628.628 0 000-.888z" fill="#171C3C"/></svg>