<svg width="42" height="42" fill="none" xmlns="http://www.w3.org/2000/svg"><path d="M41.3.39H.7a.7.7 0 00-.7.7v28a.7.7 0 00.7.7h12.64c.021.234.055.463.097.69l-3.84 4.577a.7.7 0 00.374 1.131l4.227 1.01 1.728 3.99a.7.7 0 001.179.17l3.833-4.567h.125l3.833 4.568a.7.7 0 001.178-.172l1.729-3.99 4.226-1.009a.7.7 0 00.374-1.131l-3.84-4.576c.042-.228.076-.457.097-.69H41.3a.7.7 0 00.7-.7v-28a.7.7 0 00-.7-.7zm-24.54 39.2l-1.417-3.268a.7.7 0 00-.48-.403l-3.465-.828 2.513-2.995c.014.03.031.059.044.09a7.085 7.085 0 00.44.851 8.124 8.124 0 00.538.786 8.049 8.049 0 00.629.707c.086.087.175.17.266.252.075.07.143.143.223.21.079.066.153.111.228.17.035.026.064.057.1.083.062.048.129.089.193.135.1.07.2.145.305.21.198.127.403.243.611.35.08.04.161.077.242.115a8 8 0 00.564.24c.055.02.108.043.163.062.265.093.535.171.81.234l.007.002-2.514 2.998zm5.555-4.348a6.271 6.271 0 01-.975.128h-.009c-.11.006-.22.014-.332.014-.111 0-.222-.008-.333-.014h-.009a6.392 6.392 0 01-.972-.127l-.059-.012a5.96 5.96 0 01-.37-.096c-.05-.014-.102-.028-.153-.044-.087-.027-.173-.06-.26-.09a5.306 5.306 0 01-.25-.095 2.686 2.686 0 01-.152-.07 6.587 6.587 0 01-.34-.163l-.056-.03a6.336 6.336 0 01-.826-.528 6.023 6.023 0 01-.413-.347 6.193 6.193 0 01-.447-.442c-.056-.06-.116-.117-.17-.18a6.143 6.143 0 01-.533-.73c-.023-.037-.044-.077-.07-.116a6.124 6.124 0 01-.392-.775l-.03-.07a6.304 6.304 0 01-.298-.944c0-.013-.01-.022-.013-.035a6.3 6.3 0 1112.29.008c-.003.012-.01.022-.013.034a6.307 6.307 0 01-.297.943 6.087 6.087 0 01-.422.84c-.024.04-.045.08-.07.12-.16.255-.338.5-.533.729-.053.062-.112.118-.168.178a6.351 6.351 0 01-.452.446c-.133.118-.266.238-.41.346a6.91 6.91 0 01-.416.289l-.009.005c-.127.08-.256.154-.388.224-.026.014-.05.029-.077.042-.105.056-.21.105-.32.154l-.169.074c-.078.033-.158.061-.238.09-.08.029-.178.066-.27.094l-.146.043a5.76 5.76 0 01-.374.096l-.056.011zm8.287-.153l-3.465.828a.7.7 0 00-.48.403l-1.417 3.27-2.514-2.995h.007a6.97 6.97 0 00.812-.235c.052-.018.103-.04.155-.059.195-.074.388-.155.577-.245.077-.036.154-.07.23-.11.21-.109.42-.227.621-.356.097-.062.19-.131.285-.198.07-.048.14-.092.21-.143.037-.028.07-.061.106-.09.07-.057.152-.106.223-.166.071-.06.144-.14.218-.206a7.96 7.96 0 001.133-1.277 6.967 6.967 0 00.444-.715c.11-.197.208-.4.298-.605.013-.036.03-.065.044-.096l2.513 2.995zm9.998-6.698H28.664a7.696 7.696 0 00-15.33 0H1.4V1.79h39.2v26.6z" fill="#fff"/></svg>