<svg width="56" height="33" fill="none" xmlns="http://www.w3.org/2000/svg"><path d="M15.167 28H10.5a1.167 1.167 0 010-2.333h4.667a1.167 1.167 0 010 2.333zm37.917 0h-2.917a1.167 1.167 0 010-2.333h1.948l1.573-8.382c-.021-4.288-3.684-7.952-8.188-7.952h-7.66l-3.712 16.334h6.706a1.167 1.167 0 010 2.333h-8.167a1.167 1.167 0 01-1.139-1.423L35.77 7.91c.122-.534.593-.91 1.139-.91H45.5C51.29 7 56 11.711 56 17.5l-1.77 9.548a1.163 1.163 0 01-1.146.952z" fill="#fff"/><path d="M45.5 32.667a5.84 5.84 0 01-5.833-5.834A5.84 5.84 0 0145.5 21a5.84 5.84 0 015.834 5.833 5.84 5.84 0 01-5.834 5.834zm0-9.334c-1.93 0-3.5 1.57-3.5 3.5s1.57 3.5 3.5 3.5 3.5-1.57 3.5-3.5-1.57-3.5-3.5-3.5zm-25.666 9.334A5.84 5.84 0 0114 26.833 5.84 5.84 0 0119.834 21a5.84 5.84 0 015.833 5.833 5.84 5.84 0 01-5.833 5.834zm0-9.334c-1.93 0-3.5 1.57-3.5 3.5s1.57 3.5 3.5 3.5 3.5-1.57 3.5-3.5-1.57-3.5-3.5-3.5zM15.167 7H5.834a1.167 1.167 0 010-2.333h9.333a1.167 1.167 0 010 2.333zm0 7H3.5a1.167 1.167 0 010-2.333h11.667a1.167 1.167 0 010 2.333zm0 7h-14a1.167 1.167 0 010-2.333h14a1.167 1.167 0 010 2.333z" fill="#fff"/><path d="M32.667 28H24.5a1.167 1.167 0 010-2.333h7.236l5.301-23.334H10.5A1.167 1.167 0 0110.5 0h28a1.167 1.167 0 011.139 1.423L33.805 27.09c-.12.534-.594.91-1.138.91z" fill="#fff"/></svg>