<svg width="14" height="12" fill="none" xmlns="http://www.w3.org/2000/svg"><path d="M12.543 3.128v.36c0 3.718-2.838 8.012-8.013 8.012A8.09 8.09 0 01.2 10.243c.216.018.45.036.665.036a5.7 5.7 0 003.503-1.204 2.789 2.789 0 01-2.623-1.958 2.597 2.597 0 001.276-.055A2.796 2.796 0 01.757 4.314v-.036a2.77 2.77 0 001.276.359A2.82 2.82 0 01.775 2.283c0-.52.144-1.006.377-1.419A8.015 8.015 0 006.955 3.81a2.564 2.564 0 01-.071-.646A2.814 2.814 0 019.704.343c.81 0 1.545.341 2.049.88A5.701 5.701 0 0013.55.54a2.903 2.903 0 01-1.24 1.564 5.386 5.386 0 001.617-.45 5.128 5.128 0 01-1.384 1.474z" fill="#fff"/></svg>